# xmcd
#
# Track frame offsets:
# 150
# 10268
# 31852
# 53329
# 74778
# 97243
# 118515
# 137458
# 158298
# 180864
# 204255
#
# Disc length: 3036 seconds
#
#
# Revision: 1
# Processed by: cddbd v1.5.2PL0 Copyright (c) Steve Scherf et al.
# Submitted via: FreeRIP 2.96 
#
DISCID=800bda0b
DTITLE=Joanne K. Rowling - Harry Potter 6 (und der Halbblutprinz)
DYEAR=2006
DGENRE=Hörbuch
TTITLE0=199 - Nach der Beerdigung 4
TTITLE1=200 - Nach der Beerdigung 5
TTITLE2=201 - Nach der Beerdigung 6
TTITLE3=202 - Nach der Beerdigung 7
TTITLE4=203 - Nach der Beerdigung 8
TTITLE5=204 - Nach der Beerdigung 9
TTITLE6=205 - Nach der Beerdigung 10
TTITLE7=206 - Nach der Beerdigung 11
TTITLE8=207 - Horkruxe 1
TTITLE9=208 - Horkruxe 2
TTITLE10=209 - Horkruxe 3
EXTD=gelesen von Rufs Beck
EXTT0=
EXTT1=
EXTT2=
EXTT3=
EXTT4=
EXTT5=
EXTT6=
EXTT7=
EXTT8=
EXTT9=
EXTT10=
PLAYORDER=
